HIERARCHY
ROOT tetra_large
{
	OFFSET 0.000000 0.000000 0.000000
	CHANNELS 6 Xposition Yposition Zposition Yrotation Xrotation Zrotation
	End Site
	{
		OFFSET 0.000000 0.000000 0.000000
	}
}
MOTION
Frames: 66
Frame Time: 0.008333334
-0.887264 2.214488 3.747002 119.138900 -17.053590 65.899120 
-0.888483 2.204613 3.747772 119.418500 -16.029020 65.488400 
-0.887678 2.197204 3.746732 119.187500 -15.789250 65.480890 
-0.886607 2.188424 3.746332 119.104200 -15.534360 65.445580 
-0.885440 2.180115 3.745621 119.018400 -15.225710 65.417240 
-0.883847 2.170152 3.745972 118.774500 -14.934720 65.506710 
-0.881687 2.159538 3.747552 118.338800 -14.364290 65.628060 
-0.880058 2.145541 3.749223 118.157100 -13.665100 65.498050 
-0.878415 2.130184 3.749953 117.602800 -12.686190 65.669290 
-0.878358 2.112844 3.752414 117.603300 -11.499820 65.861690 
-0.878118 2.095410 3.755671 117.335700 -10.305480 66.149430 
-0.877203 2.081934 3.759260 116.638400 -9.278381 66.105440 
-0.877782 2.071890 3.761739 116.323000 -8.598724 66.042580 
-0.879548 2.064126 3.763496 116.224500 -7.742737 65.651120 
-0.881833 2.058058 3.764763 115.846900 -7.280334 65.484540 
-0.885507 2.053007 3.767282 115.280400 -6.734894 65.490570 
-0.888853 2.046062 3.773216 114.723800 -6.032013 65.245810 
-0.892297 2.035808 3.777188 113.683100 -5.149261 65.070270 
-0.897585 2.024000 3.783585 113.025800 -4.289276 65.047370 
-0.902550 2.012166 3.788039 112.257900 -3.507050 65.153140 
-0.907835 1.999752 3.790614 111.610300 -2.843292 65.250070 
-0.913602 1.985340 3.794013 110.962800 -1.943329 65.328610 
-0.918616 1.974019 3.798094 110.559800 -1.429749 65.563920 
-0.923451 1.962062 3.798804 110.226600 -0.764160 65.831440 
-0.927879 1.949471 3.799935 109.710700 0.053950 65.926250 
-0.934618 1.938812 3.799888 109.525000 1.035028 66.167720 
-0.941044 1.928625 3.801553 108.973300 2.104955 66.238240 
-0.948415 1.919063 3.803465 108.528900 3.460727 66.391790 
-0.958548 1.914167 3.804674 107.883900 4.795441 66.078870 
-0.967977 1.913654 3.806076 107.161600 5.723770 65.742940 
-0.977052 1.915357 3.802929 106.426700 6.623702 65.488050 
-0.986852 1.921162 3.796362 106.094100 6.771444 65.190890 
-0.996857 1.926635 3.790479 105.728800 7.083045 64.858470 
-1.008387 1.929411 3.786369 105.329800 7.638702 64.646260 
-1.023103 1.931132 3.785317 104.571700 8.174427 64.694340 
-1.038647 1.930070 3.786187 103.376700 9.101026 64.726040 
-1.055155 1.926454 3.786945 102.367200 10.104730 64.858040 
-1.073396 1.925178 3.788388 101.170600 11.230940 64.872620 
-1.094000 1.921428 3.791149 99.805250 12.515960 65.011460 
-1.116171 1.916231 3.795960 98.262240 14.005290 64.818210 
-1.140376 1.911462 3.800528 96.621850 15.506080 65.109800 
-1.167516 1.902344 3.809528 94.886140 16.975500 65.350380 
-1.194627 1.890212 3.817178 93.324660 18.662760 65.811190 
-1.221218 1.874565 3.823084 91.865300 20.520500 66.523060 
-1.250796 1.851851 3.827743 90.520890 22.048170 66.875460 
-1.280966 1.826785 3.832170 89.424620 24.252320 68.098800 
-1.313220 1.801634 3.838138 88.230530 26.306850 70.031530 
-1.345668 1.772252 3.839157 87.611480 28.231570 71.705410 
-1.390361 1.733605 3.843244 85.522080 31.209240 72.643420 
-1.430044 1.698173 3.842478 84.531770 33.691450 74.412490 
-1.473563 1.661737 3.839696 83.886960 36.267910 76.481080 
-1.514827 1.625639 3.829728 82.777240 39.095270 77.554950 
-1.557652 1.587865 3.824992 83.609460 41.746440 80.639320 
-1.597339 1.555692 3.814935 83.342390 44.179010 82.580670 
-1.636928 1.522244 3.802297 83.831240 46.262940 85.638570 
-1.675408 1.491101 3.788753 84.235660 48.244070 88.425960 
-1.711365 1.462112 3.775314 85.218160 50.426030 91.227360 
-1.747637 1.436483 3.758623 86.095650 52.625920 94.203540 
-1.785733 1.413435 3.741348 87.040400 54.782870 96.922710 
-1.826506 1.393561 3.726351 88.503350 57.279880 100.251600 
-1.868365 1.374689 3.709571 90.312290 59.947840 103.585400 
-1.910348 1.361480 3.693759 92.475290 62.336190 107.668000 
-1.951493 1.351428 3.677667 95.305920 65.036380 112.034700 
-1.990436 1.343972 3.660937 98.994820 67.219570 117.194200 
-2.028202 1.338410 3.644821 103.610500 69.627380 123.087700 
-2.062290 1.333644 3.628578 109.559600 71.415080 130.220700 
